ISO-10303-21;
HEADER;
FILE_DESCRIPTION(('FreeCAD Model'),'2;1');
FILE_NAME('Open CASCADE Shape Model','2026-03-16T20:24:25',(''),(''),
  'Open CASCADE STEP processor 7.8','FreeCAD','Unknown');
FILE_SCHEMA(('AUTOMOTIVE_DESIGN { 1 0 10303 214 1 1 1 1 }'));
ENDSEC;
DATA;
#1 = APPLICATION_PROTOCOL_DEFINITION('international standard',
  'automotive_design',2000,#2);
#2 = APPLICATION_CONTEXT(
  'core data for automotive mechanical design processes');
#3 = SHAPE_DEFINITION_REPRESENTATION(#4,#10);
#4 = PRODUCT_DEFINITION_SHAPE('','',#5);
#5 = PRODUCT_DEFINITION('design','',#6,#9);
#6 = PRODUCT_DEFINITION_FORMATION('','',#7);
#7 = PRODUCT('Basin','Basin','',(#8));
#8 = PRODUCT_CONTEXT('',#2,'mechanical');
#9 = PRODUCT_DEFINITION_CONTEXT('part definition',#2,'design');
#10 = ADVANCED_BREP_SHAPE_REPRESENTATION('',(#11,#15),#351);
#11 = AXIS2_PLACEMENT_3D('',#12,#13,#14);
#12 = CARTESIAN_POINT('',(0.,0.,0.));
#13 = DIRECTION('',(0.,0.,1.));
#14 = DIRECTION('',(1.,0.,-0.));
#15 = MANIFOLD_SOLID_BREP('',#16);
#16 = CLOSED_SHELL('',(#17,#50,#70,#95,#121,#141,#167,#192,#212,#237,
    #263,#283,#309,#334));
#17 = ADVANCED_FACE('',(#18),#45,.T.);
#18 = FACE_BOUND('',#19,.F.);
#19 = EDGE_LOOP('',(#20,#29,#37,#44));
#20 = ORIENTED_EDGE('',*,*,#21,.T.);
#21 = EDGE_CURVE('',#22,#22,#24,.T.);
#22 = VERTEX_POINT('',#23);
#23 = CARTESIAN_POINT('',(68.,1.092459456231E-14,49.2));
#24 = CIRCLE('',#25,68.);
#25 = AXIS2_PLACEMENT_3D('',#26,#27,#28);
#26 = CARTESIAN_POINT('',(0.,1.092459456231E-14,49.2));
#27 = DIRECTION('',(0.,-2.22044604925E-16,-1.));
#28 = DIRECTION('',(1.,0.,0.));
#29 = ORIENTED_EDGE('',*,*,#30,.T.);
#30 = EDGE_CURVE('',#22,#31,#33,.T.);
#31 = VERTEX_POINT('',#32);
#32 = CARTESIAN_POINT('',(68.,1.132427485118E-14,51.));
#33 = LINE('',#34,#35);
#34 = CARTESIAN_POINT('',(68.,1.092459456231E-14,49.2));
#35 = VECTOR('',#36,1.);
#36 = DIRECTION('',(0.,2.22044604925E-16,1.));
#37 = ORIENTED_EDGE('',*,*,#38,.F.);
#38 = EDGE_CURVE('',#31,#31,#39,.T.);
#39 = CIRCLE('',#40,68.);
#40 = AXIS2_PLACEMENT_3D('',#41,#42,#43);
#41 = CARTESIAN_POINT('',(0.,1.132427485118E-14,51.));
#42 = DIRECTION('',(0.,-2.22044604925E-16,-1.));
#43 = DIRECTION('',(1.,0.,0.));
#44 = ORIENTED_EDGE('',*,*,#30,.F.);
#45 = CYLINDRICAL_SURFACE('',#46,68.);
#46 = AXIS2_PLACEMENT_3D('',#47,#48,#49);
#47 = CARTESIAN_POINT('',(0.,1.092459456231E-14,49.2));
#48 = DIRECTION('',(0.,2.22044604925E-16,1.));
#49 = DIRECTION('',(1.,0.,0.));
#50 = ADVANCED_FACE('',(#51,#62),#65,.F.);
#51 = FACE_BOUND('',#52,.T.);
#52 = EDGE_LOOP('',(#53));
#53 = ORIENTED_EDGE('',*,*,#54,.T.);
#54 = EDGE_CURVE('',#55,#55,#57,.T.);
#55 = VERTEX_POINT('',#56);
#56 = CARTESIAN_POINT('',(62.8,1.132427485118E-14,51.));
#57 = CIRCLE('',#58,62.8);
#58 = AXIS2_PLACEMENT_3D('',#59,#60,#61);
#59 = CARTESIAN_POINT('',(0.,1.132427485118E-14,51.));
#60 = DIRECTION('',(0.,-2.22044604925E-16,-1.));
#61 = DIRECTION('',(1.,0.,0.));
#62 = FACE_BOUND('',#63,.T.);
#63 = EDGE_LOOP('',(#64));
#64 = ORIENTED_EDGE('',*,*,#38,.F.);
#65 = PLANE('',#66);
#66 = AXIS2_PLACEMENT_3D('',#67,#68,#69);
#67 = CARTESIAN_POINT('',(0.,1.132427485118E-14,51.));
#68 = DIRECTION('',(0.,-2.22044604925E-16,-1.));
#69 = DIRECTION('',(1.,-0.,-0.));
#70 = ADVANCED_FACE('',(#71),#90,.F.);
#71 = FACE_BOUND('',#72,.T.);
#72 = EDGE_LOOP('',(#73,#82,#88,#89));
#73 = ORIENTED_EDGE('',*,*,#74,.T.);
#74 = EDGE_CURVE('',#75,#75,#77,.T.);
#75 = VERTEX_POINT('',#76);
#76 = CARTESIAN_POINT('',(62.8,3.996802888651E-15,18.));
#77 = CIRCLE('',#78,62.8);
#78 = AXIS2_PLACEMENT_3D('',#79,#80,#81);
#79 = CARTESIAN_POINT('',(0.,3.996802888651E-15,18.));
#80 = DIRECTION('',(0.,-2.22044604925E-16,-1.));
#81 = DIRECTION('',(1.,0.,0.));
#82 = ORIENTED_EDGE('',*,*,#83,.T.);
#83 = EDGE_CURVE('',#75,#55,#84,.T.);
#84 = LINE('',#85,#86);
#85 = CARTESIAN_POINT('',(62.8,3.996802888651E-15,18.));
#86 = VECTOR('',#87,1.);
#87 = DIRECTION('',(0.,2.22044604925E-16,1.));
#88 = ORIENTED_EDGE('',*,*,#54,.F.);
#89 = ORIENTED_EDGE('',*,*,#83,.F.);
#90 = CYLINDRICAL_SURFACE('',#91,62.8);
#91 = AXIS2_PLACEMENT_3D('',#92,#93,#94);
#92 = CARTESIAN_POINT('',(0.,3.996802888651E-15,18.));
#93 = DIRECTION('',(0.,2.22044604925E-16,1.));
#94 = DIRECTION('',(1.,0.,0.));
#95 = ADVANCED_FACE('',(#96),#116,.F.);
#96 = FACE_BOUND('',#97,.T.);
#97 = EDGE_LOOP('',(#98,#107,#114,#115));
#98 = ORIENTED_EDGE('',*,*,#99,.T.);
#99 = EDGE_CURVE('',#100,#100,#102,.T.);
#100 = VERTEX_POINT('',#101);
#101 = CARTESIAN_POINT('',(49.,9.325873406851E-16,4.2));
#102 = CIRCLE('',#103,49.);
#103 = AXIS2_PLACEMENT_3D('',#104,#105,#106);
#104 = CARTESIAN_POINT('',(0.,9.325873406851E-16,4.2));
#105 = DIRECTION('',(0.,-2.22044604925E-16,-1.));
#106 = DIRECTION('',(1.,0.,0.));
#107 = ORIENTED_EDGE('',*,*,#108,.T.);
#108 = EDGE_CURVE('',#100,#75,#109,.T.);
#109 = CIRCLE('',#110,13.8);
#110 = AXIS2_PLACEMENT_3D('',#111,#112,#113);
#111 = CARTESIAN_POINT('',(49.,3.996802888651E-15,18.));
#112 = DIRECTION('',(0.,-1.,2.22044604925E-16));
#113 = DIRECTION('',(1.,0.,0.));
#114 = ORIENTED_EDGE('',*,*,#74,.F.);
#115 = ORIENTED_EDGE('',*,*,#108,.F.);
#116 = TOROIDAL_SURFACE('',#117,49.,13.8);
#117 = AXIS2_PLACEMENT_3D('',#118,#119,#120);
#118 = CARTESIAN_POINT('',(0.,3.996802888651E-15,18.));
#119 = DIRECTION('',(0.,2.22044604925E-16,1.));
#120 = DIRECTION('',(1.,0.,0.));
#121 = ADVANCED_FACE('',(#122,#133),#136,.F.);
#122 = FACE_BOUND('',#123,.T.);
#123 = EDGE_LOOP('',(#124));
#124 = ORIENTED_EDGE('',*,*,#125,.T.);
#125 = EDGE_CURVE('',#126,#126,#128,.T.);
#126 = VERTEX_POINT('',#127);
#127 = CARTESIAN_POINT('',(33.050000130975,9.325873406851E-16,4.2));
#128 = CIRCLE('',#129,33.050000130975);
#129 = AXIS2_PLACEMENT_3D('',#130,#131,#132);
#130 = CARTESIAN_POINT('',(0.,9.325873406851E-16,4.2));
#131 = DIRECTION('',(0.,-2.22044604925E-16,-1.));
#132 = DIRECTION('',(1.,0.,0.));
#133 = FACE_BOUND('',#134,.T.);
#134 = EDGE_LOOP('',(#135));
#135 = ORIENTED_EDGE('',*,*,#99,.F.);
#136 = PLANE('',#137);
#137 = AXIS2_PLACEMENT_3D('',#138,#139,#140);
#138 = CARTESIAN_POINT('',(0.,9.325873406851E-16,4.2));
#139 = DIRECTION('',(0.,-2.22044604925E-16,-1.));
#140 = DIRECTION('',(1.,-0.,-0.));
#141 = ADVANCED_FACE('',(#142),#162,.F.);
#142 = FACE_BOUND('',#143,.T.);
#143 = EDGE_LOOP('',(#144,#153,#160,#161));
#144 = ORIENTED_EDGE('',*,*,#145,.T.);
#145 = EDGE_CURVE('',#146,#146,#148,.T.);
#146 = VERTEX_POINT('',#147);
#147 = CARTESIAN_POINT('',(19.25,3.996802888651E-15,18.));
#148 = CIRCLE('',#149,19.25);
#149 = AXIS2_PLACEMENT_3D('',#150,#151,#152);
#150 = CARTESIAN_POINT('',(0.,3.996802888651E-15,18.));
#151 = DIRECTION('',(0.,-2.22044604925E-16,-1.));
#152 = DIRECTION('',(1.,0.,0.));
#153 = ORIENTED_EDGE('',*,*,#154,.T.);
#154 = EDGE_CURVE('',#146,#126,#155,.T.);
#155 = CIRCLE('',#156,13.8);
#156 = AXIS2_PLACEMENT_3D('',#157,#158,#159);
#157 = CARTESIAN_POINT('',(33.05,3.996802888651E-15,18.));
#158 = DIRECTION('',(0.,-1.,2.22044604925E-16));
#159 = DIRECTION('',(1.,0.,0.));
#160 = ORIENTED_EDGE('',*,*,#125,.F.);
#161 = ORIENTED_EDGE('',*,*,#154,.F.);
#162 = TOROIDAL_SURFACE('',#163,33.05,13.8);
#163 = AXIS2_PLACEMENT_3D('',#164,#165,#166);
#164 = CARTESIAN_POINT('',(0.,3.996802888651E-15,18.));
#165 = DIRECTION('',(0.,2.22044604925E-16,1.));
#166 = DIRECTION('',(1.,0.,0.));
#167 = ADVANCED_FACE('',(#168),#187,.T.);
#168 = FACE_BOUND('',#169,.T.);
#169 = EDGE_LOOP('',(#170,#179,#185,#186));
#170 = ORIENTED_EDGE('',*,*,#171,.T.);
#171 = EDGE_CURVE('',#172,#172,#174,.T.);
#172 = VERTEX_POINT('',#173);
#173 = CARTESIAN_POINT('',(19.25,6.661338147751E-15,30.));
#174 = CIRCLE('',#175,19.25);
#175 = AXIS2_PLACEMENT_3D('',#176,#177,#178);
#176 = CARTESIAN_POINT('',(0.,6.661338147751E-15,30.));
#177 = DIRECTION('',(0.,-2.22044604925E-16,-1.));
#178 = DIRECTION('',(1.,0.,0.));
#179 = ORIENTED_EDGE('',*,*,#180,.T.);
#180 = EDGE_CURVE('',#172,#146,#181,.T.);
#181 = LINE('',#182,#183);
#182 = CARTESIAN_POINT('',(19.25,6.661338147751E-15,30.));
#183 = VECTOR('',#184,1.);
#184 = DIRECTION('',(0.,-2.22044604925E-16,-1.));
#185 = ORIENTED_EDGE('',*,*,#145,.F.);
#186 = ORIENTED_EDGE('',*,*,#180,.F.);
#187 = CYLINDRICAL_SURFACE('',#188,19.25);
#188 = AXIS2_PLACEMENT_3D('',#189,#190,#191);
#189 = CARTESIAN_POINT('',(0.,6.661338147751E-15,30.));
#190 = DIRECTION('',(0.,-2.22044604925E-16,-1.));
#191 = DIRECTION('',(1.,0.,0.));
#192 = ADVANCED_FACE('',(#193,#204),#207,.F.);
#193 = FACE_BOUND('',#194,.T.);
#194 = EDGE_LOOP('',(#195));
#195 = ORIENTED_EDGE('',*,*,#196,.T.);
#196 = EDGE_CURVE('',#197,#197,#199,.T.);
#197 = VERTEX_POINT('',#198);
#198 = CARTESIAN_POINT('',(18.05,6.661338147751E-15,30.));
#199 = CIRCLE('',#200,18.05);
#200 = AXIS2_PLACEMENT_3D('',#201,#202,#203);
#201 = CARTESIAN_POINT('',(0.,6.661338147751E-15,30.));
#202 = DIRECTION('',(0.,-2.22044604925E-16,-1.));
#203 = DIRECTION('',(1.,0.,0.));
#204 = FACE_BOUND('',#205,.T.);
#205 = EDGE_LOOP('',(#206));
#206 = ORIENTED_EDGE('',*,*,#171,.F.);
#207 = PLANE('',#208);
#208 = AXIS2_PLACEMENT_3D('',#209,#210,#211);
#209 = CARTESIAN_POINT('',(0.,6.661338147751E-15,30.));
#210 = DIRECTION('',(0.,-2.22044604925E-16,-1.));
#211 = DIRECTION('',(1.,-0.,-0.));
#212 = ADVANCED_FACE('',(#213),#232,.F.);
#213 = FACE_BOUND('',#214,.F.);
#214 = EDGE_LOOP('',(#215,#216,#224,#231));
#215 = ORIENTED_EDGE('',*,*,#196,.T.);
#216 = ORIENTED_EDGE('',*,*,#217,.T.);
#217 = EDGE_CURVE('',#197,#218,#220,.T.);
#218 = VERTEX_POINT('',#219);
#219 = CARTESIAN_POINT('',(18.05,3.996802888651E-15,18.));
#220 = LINE('',#221,#222);
#221 = CARTESIAN_POINT('',(18.05,6.661338147751E-15,30.));
#222 = VECTOR('',#223,1.);
#223 = DIRECTION('',(0.,-2.22044604925E-16,-1.));
#224 = ORIENTED_EDGE('',*,*,#225,.F.);
#225 = EDGE_CURVE('',#218,#218,#226,.T.);
#226 = CIRCLE('',#227,18.05);
#227 = AXIS2_PLACEMENT_3D('',#228,#229,#230);
#228 = CARTESIAN_POINT('',(0.,3.996802888651E-15,18.));
#229 = DIRECTION('',(0.,-2.22044604925E-16,-1.));
#230 = DIRECTION('',(1.,0.,0.));
#231 = ORIENTED_EDGE('',*,*,#217,.F.);
#232 = CYLINDRICAL_SURFACE('',#233,18.05);
#233 = AXIS2_PLACEMENT_3D('',#234,#235,#236);
#234 = CARTESIAN_POINT('',(0.,6.661338147751E-15,30.));
#235 = DIRECTION('',(0.,-2.22044604925E-16,-1.));
#236 = DIRECTION('',(1.,0.,0.));
#237 = ADVANCED_FACE('',(#238),#258,.T.);
#238 = FACE_BOUND('',#239,.F.);
#239 = EDGE_LOOP('',(#240,#241,#250,#257));
#240 = ORIENTED_EDGE('',*,*,#225,.T.);
#241 = ORIENTED_EDGE('',*,*,#242,.T.);
#242 = EDGE_CURVE('',#218,#243,#245,.T.);
#243 = VERTEX_POINT('',#244);
#244 = CARTESIAN_POINT('',(33.05,6.661338147751E-16,3.));
#245 = CIRCLE('',#246,15.);
#246 = AXIS2_PLACEMENT_3D('',#247,#248,#249);
#247 = CARTESIAN_POINT('',(33.05,3.996802888651E-15,18.));
#248 = DIRECTION('',(0.,-1.,2.22044604925E-16));
#249 = DIRECTION('',(1.,0.,0.));
#250 = ORIENTED_EDGE('',*,*,#251,.F.);
#251 = EDGE_CURVE('',#243,#243,#252,.T.);
#252 = CIRCLE('',#253,33.05);
#253 = AXIS2_PLACEMENT_3D('',#254,#255,#256);
#254 = CARTESIAN_POINT('',(0.,6.661338147751E-16,3.));
#255 = DIRECTION('',(0.,-2.22044604925E-16,-1.));
#256 = DIRECTION('',(1.,0.,0.));
#257 = ORIENTED_EDGE('',*,*,#242,.F.);
#258 = TOROIDAL_SURFACE('',#259,33.05,15.);
#259 = AXIS2_PLACEMENT_3D('',#260,#261,#262);
#260 = CARTESIAN_POINT('',(0.,3.996802888651E-15,18.));
#261 = DIRECTION('',(0.,2.22044604925E-16,1.));
#262 = DIRECTION('',(1.,0.,0.));
#263 = ADVANCED_FACE('',(#264,#267),#278,.T.);
#264 = FACE_BOUND('',#265,.F.);
#265 = EDGE_LOOP('',(#266));
#266 = ORIENTED_EDGE('',*,*,#251,.T.);
#267 = FACE_BOUND('',#268,.F.);
#268 = EDGE_LOOP('',(#269));
#269 = ORIENTED_EDGE('',*,*,#270,.F.);
#270 = EDGE_CURVE('',#271,#271,#273,.T.);
#271 = VERTEX_POINT('',#272);
#272 = CARTESIAN_POINT('',(49.,6.661338147751E-16,3.));
#273 = CIRCLE('',#274,49.);
#274 = AXIS2_PLACEMENT_3D('',#275,#276,#277);
#275 = CARTESIAN_POINT('',(0.,6.661338147751E-16,3.));
#276 = DIRECTION('',(0.,-2.22044604925E-16,-1.));
#277 = DIRECTION('',(1.,0.,0.));
#278 = PLANE('',#279);
#279 = AXIS2_PLACEMENT_3D('',#280,#281,#282);
#280 = CARTESIAN_POINT('',(0.,6.661338147751E-16,3.));
#281 = DIRECTION('',(0.,-2.22044604925E-16,-1.));
#282 = DIRECTION('',(1.,-0.,-0.));
#283 = ADVANCED_FACE('',(#284),#304,.T.);
#284 = FACE_BOUND('',#285,.F.);
#285 = EDGE_LOOP('',(#286,#287,#296,#303));
#286 = ORIENTED_EDGE('',*,*,#270,.T.);
#287 = ORIENTED_EDGE('',*,*,#288,.T.);
#288 = EDGE_CURVE('',#271,#289,#291,.T.);
#289 = VERTEX_POINT('',#290);
#290 = CARTESIAN_POINT('',(64.,3.996802888651E-15,18.));
#291 = CIRCLE('',#292,15.);
#292 = AXIS2_PLACEMENT_3D('',#293,#294,#295);
#293 = CARTESIAN_POINT('',(49.,3.996802888651E-15,18.));
#294 = DIRECTION('',(0.,-1.,2.22044604925E-16));
#295 = DIRECTION('',(1.,0.,0.));
#296 = ORIENTED_EDGE('',*,*,#297,.F.);
#297 = EDGE_CURVE('',#289,#289,#298,.T.);
#298 = CIRCLE('',#299,64.);
#299 = AXIS2_PLACEMENT_3D('',#300,#301,#302);
#300 = CARTESIAN_POINT('',(0.,3.996802888651E-15,18.));
#301 = DIRECTION('',(0.,-2.22044604925E-16,-1.));
#302 = DIRECTION('',(1.,0.,0.));
#303 = ORIENTED_EDGE('',*,*,#288,.F.);
#304 = TOROIDAL_SURFACE('',#305,49.,15.);
#305 = AXIS2_PLACEMENT_3D('',#306,#307,#308);
#306 = CARTESIAN_POINT('',(0.,3.996802888651E-15,18.));
#307 = DIRECTION('',(0.,2.22044604925E-16,1.));
#308 = DIRECTION('',(1.,0.,0.));
#309 = ADVANCED_FACE('',(#310),#329,.T.);
#310 = FACE_BOUND('',#311,.F.);
#311 = EDGE_LOOP('',(#312,#313,#321,#328));
#312 = ORIENTED_EDGE('',*,*,#297,.T.);
#313 = ORIENTED_EDGE('',*,*,#314,.T.);
#314 = EDGE_CURVE('',#289,#315,#317,.T.);
#315 = VERTEX_POINT('',#316);
#316 = CARTESIAN_POINT('',(64.,1.003641614261E-14,45.2));
#317 = LINE('',#318,#319);
#318 = CARTESIAN_POINT('',(64.,3.996802888651E-15,18.));
#319 = VECTOR('',#320,1.);
#320 = DIRECTION('',(0.,2.22044604925E-16,1.));
#321 = ORIENTED_EDGE('',*,*,#322,.F.);
#322 = EDGE_CURVE('',#315,#315,#323,.T.);
#323 = CIRCLE('',#324,64.);
#324 = AXIS2_PLACEMENT_3D('',#325,#326,#327);
#325 = CARTESIAN_POINT('',(0.,1.003641614261E-14,45.2));
#326 = DIRECTION('',(0.,-2.22044604925E-16,-1.));
#327 = DIRECTION('',(1.,0.,0.));
#328 = ORIENTED_EDGE('',*,*,#314,.F.);
#329 = CYLINDRICAL_SURFACE('',#330,64.);
#330 = AXIS2_PLACEMENT_3D('',#331,#332,#333);
#331 = CARTESIAN_POINT('',(0.,3.996802888651E-15,18.));
#332 = DIRECTION('',(0.,2.22044604925E-16,1.));
#333 = DIRECTION('',(1.,0.,0.));
#334 = ADVANCED_FACE('',(#335),#346,.T.);
#335 = FACE_BOUND('',#336,.T.);
#336 = EDGE_LOOP('',(#337,#338,#344,#345));
#337 = ORIENTED_EDGE('',*,*,#21,.T.);
#338 = ORIENTED_EDGE('',*,*,#339,.T.);
#339 = EDGE_CURVE('',#22,#315,#340,.T.);
#340 = LINE('',#341,#342);
#341 = CARTESIAN_POINT('',(68.,1.092459456231E-14,49.2));
#342 = VECTOR('',#343,1.);
#343 = DIRECTION('',(-0.707106781187,-1.570092458684E-16,-0.707106781187
    ));
#344 = ORIENTED_EDGE('',*,*,#322,.F.);
#345 = ORIENTED_EDGE('',*,*,#339,.F.);
#346 = CONICAL_SURFACE('',#347,68.,0.785398163397);
#347 = AXIS2_PLACEMENT_3D('',#348,#349,#350);
#348 = CARTESIAN_POINT('',(0.,1.092459456231E-14,49.2));
#349 = DIRECTION('',(-0.,2.22044604925E-16,1.));
#350 = DIRECTION('',(1.,0.,0.));
#351 = ( GEOMETRIC_REPRESENTATION_CONTEXT(3) 
GLOBAL_UNCERTAINTY_ASSIGNED_CONTEXT((#355)) GLOBAL_UNIT_ASSIGNED_CONTEXT
((#352,#353,#354)) REPRESENTATION_CONTEXT('Context #1',
  '3D Context with UNIT and UNCERTAINTY') );
#352 = ( LENGTH_UNIT() NAMED_UNIT(*) SI_UNIT(.MILLI.,.METRE.) );
#353 = ( NAMED_UNIT(*) PLANE_ANGLE_UNIT() SI_UNIT($,.RADIAN.) );
#354 = ( NAMED_UNIT(*) SI_UNIT($,.STERADIAN.) SOLID_ANGLE_UNIT() );
#355 = UNCERTAINTY_MEASURE_WITH_UNIT(LENGTH_MEASURE(1.E-07),#352,
  'distance_accuracy_value','confusion accuracy');
#356 = PRODUCT_RELATED_PRODUCT_CATEGORY('part',$,(#7));
#357 = MECHANICAL_DESIGN_GEOMETRIC_PRESENTATION_REPRESENTATION('',(#358)
  ,#351);
#358 = STYLED_ITEM('color',(#359),#15);
#359 = PRESENTATION_STYLE_ASSIGNMENT((#360,#366));
#360 = SURFACE_STYLE_USAGE(.BOTH.,#361);
#361 = SURFACE_SIDE_STYLE('',(#362));
#362 = SURFACE_STYLE_FILL_AREA(#363);
#363 = FILL_AREA_STYLE('',(#364));
#364 = FILL_AREA_STYLE_COLOUR('',#365);
#365 = COLOUR_RGB('',0.447058818107,0.474509808674,0.501960817233);
#366 = CURVE_STYLE('',#367,POSITIVE_LENGTH_MEASURE(0.1),#368);
#367 = DRAUGHTING_PRE_DEFINED_CURVE_FONT('continuous');
#368 = COLOUR_RGB('',9.803921802644E-02,9.803921802644E-02,
  9.803921802644E-02);
ENDSEC;
END-ISO-10303-21;
