ISO-10303-21;
HEADER;
FILE_DESCRIPTION(('FreeCAD Model'),'2;1');
FILE_NAME('Open CASCADE Shape Model','2026-03-15T20:27:25',(''),(''),
  'Open CASCADE STEP processor 7.8','FreeCAD','Unknown');
FILE_SCHEMA(('AUTOMOTIVE_DESIGN { 1 0 10303 214 1 1 1 1 }'));
ENDSEC;
DATA;
#1 = APPLICATION_PROTOCOL_DEFINITION('international standard',
  'automotive_design',2000,#2);
#2 = APPLICATION_CONTEXT(
  'core data for automotive mechanical design processes');
#3 = SHAPE_DEFINITION_REPRESENTATION(#4,#10);
#4 = PRODUCT_DEFINITION_SHAPE('','',#5);
#5 = PRODUCT_DEFINITION('design','',#6,#9);
#6 = PRODUCT_DEFINITION_FORMATION('','',#7);
#7 = PRODUCT('Chuck','Chuck','',(#8));
#8 = PRODUCT_CONTEXT('',#2,'mechanical');
#9 = PRODUCT_DEFINITION_CONTEXT('part definition',#2,'design');
#10 = ADVANCED_BREP_SHAPE_REPRESENTATION('',(#11,#15),#557);
#11 = AXIS2_PLACEMENT_3D('',#12,#13,#14);
#12 = CARTESIAN_POINT('',(0.,0.,0.));
#13 = DIRECTION('',(0.,0.,1.));
#14 = DIRECTION('',(1.,0.,-0.));
#15 = MANIFOLD_SOLID_BREP('',#16);
#16 = CLOSED_SHELL('',(#17,#45,#69,#94,#136,#156,#181,#206,#231,#256,
    #281,#306,#331,#390,#455,#477,#494,#511,#528,#545));
#17 = ADVANCED_FACE('',(#18,#29),#40,.F.);
#18 = FACE_BOUND('',#19,.F.);
#19 = EDGE_LOOP('',(#20));
#20 = ORIENTED_EDGE('',*,*,#21,.T.);
#21 = EDGE_CURVE('',#22,#22,#24,.T.);
#22 = VERTEX_POINT('',#23);
#23 = CARTESIAN_POINT('',(25.,0.,0.));
#24 = CIRCLE('',#25,25.);
#25 = AXIS2_PLACEMENT_3D('',#26,#27,#28);
#26 = CARTESIAN_POINT('',(0.,0.,0.));
#27 = DIRECTION('',(0.,0.,1.));
#28 = DIRECTION('',(1.,0.,0.));
#29 = FACE_BOUND('',#30,.F.);
#30 = EDGE_LOOP('',(#31));
#31 = ORIENTED_EDGE('',*,*,#32,.T.);
#32 = EDGE_CURVE('',#33,#33,#35,.T.);
#33 = VERTEX_POINT('',#34);
#34 = CARTESIAN_POINT('',(20.1,0.,0.));
#35 = CIRCLE('',#36,20.1);
#36 = AXIS2_PLACEMENT_3D('',#37,#38,#39);
#37 = CARTESIAN_POINT('',(0.,0.,0.));
#38 = DIRECTION('',(0.,0.,-1.));
#39 = DIRECTION('',(1.,0.,0.));
#40 = PLANE('',#41);
#41 = AXIS2_PLACEMENT_3D('',#42,#43,#44);
#42 = CARTESIAN_POINT('',(-1.2E-15,-7.E-16,0.));
#43 = DIRECTION('',(0.,0.,1.));
#44 = DIRECTION('',(1.,0.,0.));
#45 = ADVANCED_FACE('',(#46),#64,.T.);
#46 = FACE_BOUND('',#47,.F.);
#47 = EDGE_LOOP('',(#48,#49,#56,#63));
#48 = ORIENTED_EDGE('',*,*,#21,.F.);
#49 = ORIENTED_EDGE('',*,*,#50,.F.);
#50 = EDGE_CURVE('',#51,#22,#53,.T.);
#51 = VERTEX_POINT('',#52);
#52 = CARTESIAN_POINT('',(25.,0.,7.));
#53 = B_SPLINE_CURVE_WITH_KNOTS('',1,(#54,#55),.UNSPECIFIED.,.F.,.F.,(2,
    2),(-7.,0.),.PIECEWISE_BEZIER_KNOTS.);
#54 = CARTESIAN_POINT('',(25.,-6.12E-15,7.));
#55 = CARTESIAN_POINT('',(25.,-6.12E-15,0.));
#56 = ORIENTED_EDGE('',*,*,#57,.T.);
#57 = EDGE_CURVE('',#51,#51,#58,.T.);
#58 = CIRCLE('',#59,25.);
#59 = AXIS2_PLACEMENT_3D('',#60,#61,#62);
#60 = CARTESIAN_POINT('',(0.,0.,7.));
#61 = DIRECTION('',(0.,0.,1.));
#62 = DIRECTION('',(1.,0.,0.));
#63 = ORIENTED_EDGE('',*,*,#50,.T.);
#64 = CYLINDRICAL_SURFACE('',#65,25.);
#65 = AXIS2_PLACEMENT_3D('',#66,#67,#68);
#66 = CARTESIAN_POINT('',(0.,0.,0.));
#67 = DIRECTION('',(-0.,-0.,-1.));
#68 = DIRECTION('',(1.,0.,0.));
#69 = ADVANCED_FACE('',(#70),#89,.F.);
#70 = FACE_BOUND('',#71,.F.);
#71 = EDGE_LOOP('',(#72,#80,#87,#88));
#72 = ORIENTED_EDGE('',*,*,#73,.T.);
#73 = EDGE_CURVE('',#33,#74,#76,.T.);
#74 = VERTEX_POINT('',#75);
#75 = CARTESIAN_POINT('',(20.1,0.,4.));
#76 = LINE('',#77,#78);
#77 = CARTESIAN_POINT('',(20.1,0.,0.));
#78 = VECTOR('',#79,1.);
#79 = DIRECTION('',(0.,0.,1.));
#80 = ORIENTED_EDGE('',*,*,#81,.T.);
#81 = EDGE_CURVE('',#74,#74,#82,.T.);
#82 = CIRCLE('',#83,20.1);
#83 = AXIS2_PLACEMENT_3D('',#84,#85,#86);
#84 = CARTESIAN_POINT('',(0.,0.,4.));
#85 = DIRECTION('',(0.,0.,-1.));
#86 = DIRECTION('',(1.,0.,0.));
#87 = ORIENTED_EDGE('',*,*,#73,.F.);
#88 = ORIENTED_EDGE('',*,*,#32,.F.);
#89 = CYLINDRICAL_SURFACE('',#90,20.1);
#90 = AXIS2_PLACEMENT_3D('',#91,#92,#93);
#91 = CARTESIAN_POINT('',(0.,0.,0.));
#92 = DIRECTION('',(0.,0.,-1.));
#93 = DIRECTION('',(1.,0.,0.));
#94 = ADVANCED_FACE('',(#95,#98,#109,#120),#131,.T.);
#95 = FACE_BOUND('',#96,.T.);
#96 = EDGE_LOOP('',(#97));
#97 = ORIENTED_EDGE('',*,*,#57,.T.);
#98 = FACE_BOUND('',#99,.T.);
#99 = EDGE_LOOP('',(#100));
#100 = ORIENTED_EDGE('',*,*,#101,.F.);
#101 = EDGE_CURVE('',#102,#102,#104,.T.);
#102 = VERTEX_POINT('',#103);
#103 = CARTESIAN_POINT('',(-3.,-2.033E-11,7.));
#104 = CIRCLE('',#105,3.5);
#105 = AXIS2_PLACEMENT_3D('',#106,#107,#108);
#106 = CARTESIAN_POINT('',(-6.5,-2.033E-11,7.));
#107 = DIRECTION('',(0.,0.,1.));
#108 = DIRECTION('',(1.,0.,0.));
#109 = FACE_BOUND('',#110,.T.);
#110 = EDGE_LOOP('',(#111));
#111 = ORIENTED_EDGE('',*,*,#112,.F.);
#112 = EDGE_CURVE('',#113,#113,#115,.T.);
#113 = VERTEX_POINT('',#114);
#114 = CARTESIAN_POINT('',(6.750000000018,-5.629165124589,7.));
#115 = CIRCLE('',#116,3.5);
#116 = AXIS2_PLACEMENT_3D('',#117,#118,#119);
#117 = CARTESIAN_POINT('',(3.250000000018,-5.629165124589,7.));
#118 = DIRECTION('',(0.,0.,1.));
#119 = DIRECTION('',(1.,0.,0.));
#120 = FACE_BOUND('',#121,.T.);
#121 = EDGE_LOOP('',(#122));
#122 = ORIENTED_EDGE('',*,*,#123,.F.);
#123 = EDGE_CURVE('',#124,#124,#126,.T.);
#124 = VERTEX_POINT('',#125);
#125 = CARTESIAN_POINT('',(6.749999999982,5.629165124609,7.));
#126 = CIRCLE('',#127,3.5);
#127 = AXIS2_PLACEMENT_3D('',#128,#129,#130);
#128 = CARTESIAN_POINT('',(3.249999999982,5.629165124609,7.));
#129 = DIRECTION('',(0.,0.,1.));
#130 = DIRECTION('',(1.,0.,0.));
#131 = PLANE('',#132);
#132 = AXIS2_PLACEMENT_3D('',#133,#134,#135);
#133 = CARTESIAN_POINT('',(-1.75E-15,-1.02E-15,7.));
#134 = DIRECTION('',(0.,0.,1.));
#135 = DIRECTION('',(1.,0.,0.));
#136 = ADVANCED_FACE('',(#137,#140),#151,.F.);
#137 = FACE_BOUND('',#138,.T.);
#138 = EDGE_LOOP('',(#139));
#139 = ORIENTED_EDGE('',*,*,#81,.T.);
#140 = FACE_BOUND('',#141,.F.);
#141 = EDGE_LOOP('',(#142));
#142 = ORIENTED_EDGE('',*,*,#143,.T.);
#143 = EDGE_CURVE('',#144,#144,#146,.T.);
#144 = VERTEX_POINT('',#145);
#145 = CARTESIAN_POINT('',(17.1,0.,4.));
#146 = CIRCLE('',#147,17.1);
#147 = AXIS2_PLACEMENT_3D('',#148,#149,#150);
#148 = CARTESIAN_POINT('',(0.,0.,4.));
#149 = DIRECTION('',(0.,0.,-1.));
#150 = DIRECTION('',(1.,0.,0.));
#151 = PLANE('',#152);
#152 = AXIS2_PLACEMENT_3D('',#153,#154,#155);
#153 = CARTESIAN_POINT('',(-4.4E-16,3.2E-16,4.));
#154 = DIRECTION('',(0.,0.,1.));
#155 = DIRECTION('',(1.,0.,0.));
#156 = ADVANCED_FACE('',(#157),#176,.F.);
#157 = FACE_BOUND('',#158,.T.);
#158 = EDGE_LOOP('',(#159,#167,#168,#169));
#159 = ORIENTED_EDGE('',*,*,#160,.F.);
#160 = EDGE_CURVE('',#102,#161,#163,.T.);
#161 = VERTEX_POINT('',#162);
#162 = CARTESIAN_POINT('',(-4.8,-2.033E-11,5.2));
#163 = LINE('',#164,#165);
#164 = CARTESIAN_POINT('',(-3.,-2.033E-11,7.));
#165 = VECTOR('',#166,1.);
#166 = DIRECTION('',(-0.707106781187,0.,-0.707106781187));
#167 = ORIENTED_EDGE('',*,*,#101,.T.);
#168 = ORIENTED_EDGE('',*,*,#160,.T.);
#169 = ORIENTED_EDGE('',*,*,#170,.F.);
#170 = EDGE_CURVE('',#161,#161,#171,.T.);
#171 = CIRCLE('',#172,1.7);
#172 = AXIS2_PLACEMENT_3D('',#173,#174,#175);
#173 = CARTESIAN_POINT('',(-6.5,-2.033E-11,5.2));
#174 = DIRECTION('',(0.,0.,1.));
#175 = DIRECTION('',(1.,0.,0.));
#176 = CONICAL_SURFACE('',#177,3.5,0.785398163397);
#177 = AXIS2_PLACEMENT_3D('',#178,#179,#180);
#178 = CARTESIAN_POINT('',(-6.5,-2.033E-11,7.));
#179 = DIRECTION('',(0.,0.,1.));
#180 = DIRECTION('',(1.,0.,0.));
#181 = ADVANCED_FACE('',(#182),#201,.F.);
#182 = FACE_BOUND('',#183,.T.);
#183 = EDGE_LOOP('',(#184,#192,#193,#194));
#184 = ORIENTED_EDGE('',*,*,#185,.F.);
#185 = EDGE_CURVE('',#113,#186,#188,.T.);
#186 = VERTEX_POINT('',#187);
#187 = CARTESIAN_POINT('',(4.950000000018,-5.629165124589,5.2));
#188 = LINE('',#189,#190);
#189 = CARTESIAN_POINT('',(6.750000000018,-5.629165124589,7.));
#190 = VECTOR('',#191,1.);
#191 = DIRECTION('',(-0.707106781187,0.,-0.707106781187));
#192 = ORIENTED_EDGE('',*,*,#112,.T.);
#193 = ORIENTED_EDGE('',*,*,#185,.T.);
#194 = ORIENTED_EDGE('',*,*,#195,.F.);
#195 = EDGE_CURVE('',#186,#186,#196,.T.);
#196 = CIRCLE('',#197,1.7);
#197 = AXIS2_PLACEMENT_3D('',#198,#199,#200);
#198 = CARTESIAN_POINT('',(3.250000000018,-5.629165124589,5.2));
#199 = DIRECTION('',(0.,0.,1.));
#200 = DIRECTION('',(1.,0.,0.));
#201 = CONICAL_SURFACE('',#202,3.5,0.785398163397);
#202 = AXIS2_PLACEMENT_3D('',#203,#204,#205);
#203 = CARTESIAN_POINT('',(3.250000000018,-5.629165124589,7.));
#204 = DIRECTION('',(0.,0.,1.));
#205 = DIRECTION('',(1.,0.,0.));
#206 = ADVANCED_FACE('',(#207),#226,.F.);
#207 = FACE_BOUND('',#208,.T.);
#208 = EDGE_LOOP('',(#209,#217,#218,#219));
#209 = ORIENTED_EDGE('',*,*,#210,.F.);
#210 = EDGE_CURVE('',#124,#211,#213,.T.);
#211 = VERTEX_POINT('',#212);
#212 = CARTESIAN_POINT('',(4.949999999982,5.629165124609,5.2));
#213 = LINE('',#214,#215);
#214 = CARTESIAN_POINT('',(6.749999999982,5.629165124609,7.));
#215 = VECTOR('',#216,1.);
#216 = DIRECTION('',(-0.707106781187,0.,-0.707106781187));
#217 = ORIENTED_EDGE('',*,*,#123,.T.);
#218 = ORIENTED_EDGE('',*,*,#210,.T.);
#219 = ORIENTED_EDGE('',*,*,#220,.F.);
#220 = EDGE_CURVE('',#211,#211,#221,.T.);
#221 = CIRCLE('',#222,1.7);
#222 = AXIS2_PLACEMENT_3D('',#223,#224,#225);
#223 = CARTESIAN_POINT('',(3.249999999982,5.629165124609,5.2));
#224 = DIRECTION('',(0.,0.,1.));
#225 = DIRECTION('',(1.,0.,0.));
#226 = CONICAL_SURFACE('',#227,3.5,0.785398163397);
#227 = AXIS2_PLACEMENT_3D('',#228,#229,#230);
#228 = CARTESIAN_POINT('',(3.249999999982,5.629165124609,7.));
#229 = DIRECTION('',(0.,0.,1.));
#230 = DIRECTION('',(1.,0.,0.));
#231 = ADVANCED_FACE('',(#232),#251,.T.);
#232 = FACE_BOUND('',#233,.T.);
#233 = EDGE_LOOP('',(#234,#242,#243,#244));
#234 = ORIENTED_EDGE('',*,*,#235,.T.);
#235 = EDGE_CURVE('',#236,#144,#238,.T.);
#236 = VERTEX_POINT('',#237);
#237 = CARTESIAN_POINT('',(17.1,0.,0.));
#238 = LINE('',#239,#240);
#239 = CARTESIAN_POINT('',(17.1,0.,0.));
#240 = VECTOR('',#241,1.);
#241 = DIRECTION('',(0.,0.,1.));
#242 = ORIENTED_EDGE('',*,*,#143,.T.);
#243 = ORIENTED_EDGE('',*,*,#235,.F.);
#244 = ORIENTED_EDGE('',*,*,#245,.F.);
#245 = EDGE_CURVE('',#236,#236,#246,.T.);
#246 = CIRCLE('',#247,17.1);
#247 = AXIS2_PLACEMENT_3D('',#248,#249,#250);
#248 = CARTESIAN_POINT('',(0.,0.,0.));
#249 = DIRECTION('',(0.,0.,-1.));
#250 = DIRECTION('',(1.,0.,0.));
#251 = CYLINDRICAL_SURFACE('',#252,17.1);
#252 = AXIS2_PLACEMENT_3D('',#253,#254,#255);
#253 = CARTESIAN_POINT('',(0.,0.,0.));
#254 = DIRECTION('',(0.,0.,-1.));
#255 = DIRECTION('',(1.,0.,0.));
#256 = ADVANCED_FACE('',(#257),#276,.F.);
#257 = FACE_BOUND('',#258,.T.);
#258 = EDGE_LOOP('',(#259,#267,#268,#269));
#259 = ORIENTED_EDGE('',*,*,#260,.F.);
#260 = EDGE_CURVE('',#161,#261,#263,.T.);
#261 = VERTEX_POINT('',#262);
#262 = CARTESIAN_POINT('',(-4.8,-2.033E-11,4.));
#263 = LINE('',#264,#265);
#264 = CARTESIAN_POINT('',(-4.8,-2.033E-11,5.2));
#265 = VECTOR('',#266,1.);
#266 = DIRECTION('',(-7.E-17,0.,-1.));
#267 = ORIENTED_EDGE('',*,*,#170,.T.);
#268 = ORIENTED_EDGE('',*,*,#260,.T.);
#269 = ORIENTED_EDGE('',*,*,#270,.T.);
#270 = EDGE_CURVE('',#261,#261,#271,.T.);
#271 = CIRCLE('',#272,1.7);
#272 = AXIS2_PLACEMENT_3D('',#273,#274,#275);
#273 = CARTESIAN_POINT('',(-6.5,-2.03298E-11,4.));
#274 = DIRECTION('',(0.,0.,-1.));
#275 = DIRECTION('',(1.,0.,0.));
#276 = CYLINDRICAL_SURFACE('',#277,1.7);
#277 = AXIS2_PLACEMENT_3D('',#278,#279,#280);
#278 = CARTESIAN_POINT('',(-6.5,-2.033E-11,5.2));
#279 = DIRECTION('',(-0.,-0.,-1.));
#280 = DIRECTION('',(1.,0.,0.));
#281 = ADVANCED_FACE('',(#282),#301,.F.);
#282 = FACE_BOUND('',#283,.T.);
#283 = EDGE_LOOP('',(#284,#292,#293,#294));
#284 = ORIENTED_EDGE('',*,*,#285,.F.);
#285 = EDGE_CURVE('',#186,#286,#288,.T.);
#286 = VERTEX_POINT('',#287);
#287 = CARTESIAN_POINT('',(4.950000000018,-5.629165124589,4.));
#288 = LINE('',#289,#290);
#289 = CARTESIAN_POINT('',(4.950000000018,-5.629165124589,5.2));
#290 = VECTOR('',#291,1.);
#291 = DIRECTION('',(-7.E-17,0.,-1.));
#292 = ORIENTED_EDGE('',*,*,#195,.T.);
#293 = ORIENTED_EDGE('',*,*,#285,.T.);
#294 = ORIENTED_EDGE('',*,*,#295,.T.);
#295 = EDGE_CURVE('',#286,#286,#296,.T.);
#296 = CIRCLE('',#297,1.7);
#297 = AXIS2_PLACEMENT_3D('',#298,#299,#300);
#298 = CARTESIAN_POINT('',(3.250000000018,-5.629165124589,4.));
#299 = DIRECTION('',(0.,0.,-1.));
#300 = DIRECTION('',(1.,0.,0.));
#301 = CYLINDRICAL_SURFACE('',#302,1.7);
#302 = AXIS2_PLACEMENT_3D('',#303,#304,#305);
#303 = CARTESIAN_POINT('',(3.250000000018,-5.629165124589,5.2));
#304 = DIRECTION('',(-0.,-0.,-1.));
#305 = DIRECTION('',(1.,0.,0.));
#306 = ADVANCED_FACE('',(#307),#326,.F.);
#307 = FACE_BOUND('',#308,.T.);
#308 = EDGE_LOOP('',(#309,#317,#318,#319));
#309 = ORIENTED_EDGE('',*,*,#310,.F.);
#310 = EDGE_CURVE('',#211,#311,#313,.T.);
#311 = VERTEX_POINT('',#312);
#312 = CARTESIAN_POINT('',(4.949999999982,5.629165124609,4.));
#313 = LINE('',#314,#315);
#314 = CARTESIAN_POINT('',(4.949999999982,5.629165124609,5.2));
#315 = VECTOR('',#316,1.);
#316 = DIRECTION('',(-7.E-17,0.,-1.));
#317 = ORIENTED_EDGE('',*,*,#220,.T.);
#318 = ORIENTED_EDGE('',*,*,#310,.T.);
#319 = ORIENTED_EDGE('',*,*,#320,.T.);
#320 = EDGE_CURVE('',#311,#311,#321,.T.);
#321 = CIRCLE('',#322,1.7);
#322 = AXIS2_PLACEMENT_3D('',#323,#324,#325);
#323 = CARTESIAN_POINT('',(3.249999999982,5.629165124609,4.));
#324 = DIRECTION('',(0.,0.,-1.));
#325 = DIRECTION('',(1.,0.,0.));
#326 = CYLINDRICAL_SURFACE('',#327,1.7);
#327 = AXIS2_PLACEMENT_3D('',#328,#329,#330);
#328 = CARTESIAN_POINT('',(3.249999999982,5.629165124609,5.2));
#329 = DIRECTION('',(-0.,-0.,-1.));
#330 = DIRECTION('',(1.,0.,0.));
#331 = ADVANCED_FACE('',(#332,#335),#385,.F.);
#332 = FACE_BOUND('',#333,.F.);
#333 = EDGE_LOOP('',(#334));
#334 = ORIENTED_EDGE('',*,*,#245,.F.);
#335 = FACE_BOUND('',#336,.F.);
#336 = EDGE_LOOP('',(#337,#347,#355,#363,#371,#379));
#337 = ORIENTED_EDGE('',*,*,#338,.F.);
#338 = EDGE_CURVE('',#339,#341,#343,.T.);
#339 = VERTEX_POINT('',#340);
#340 = CARTESIAN_POINT('',(5.,8.660254037844,0.));
#341 = VERTEX_POINT('',#342);
#342 = CARTESIAN_POINT('',(-5.,8.660254037844,0.));
#343 = LINE('',#344,#345);
#344 = CARTESIAN_POINT('',(5.,8.660254037844,0.));
#345 = VECTOR('',#346,1.);
#346 = DIRECTION('',(-1.,1.8E-16,0.));
#347 = ORIENTED_EDGE('',*,*,#348,.F.);
#348 = EDGE_CURVE('',#349,#339,#351,.T.);
#349 = VERTEX_POINT('',#350);
#350 = CARTESIAN_POINT('',(10.,0.,0.));
#351 = LINE('',#352,#353);
#352 = CARTESIAN_POINT('',(10.,0.,0.));
#353 = VECTOR('',#354,1.);
#354 = DIRECTION('',(-0.5,0.866025403784,0.));
#355 = ORIENTED_EDGE('',*,*,#356,.F.);
#356 = EDGE_CURVE('',#357,#349,#359,.T.);
#357 = VERTEX_POINT('',#358);
#358 = CARTESIAN_POINT('',(5.,-8.660254037844,0.));
#359 = LINE('',#360,#361);
#360 = CARTESIAN_POINT('',(5.,-8.660254037844,0.));
#361 = VECTOR('',#362,1.);
#362 = DIRECTION('',(0.5,0.866025403784,0.));
#363 = ORIENTED_EDGE('',*,*,#364,.F.);
#364 = EDGE_CURVE('',#365,#357,#367,.T.);
#365 = VERTEX_POINT('',#366);
#366 = CARTESIAN_POINT('',(-5.,-8.660254037844,0.));
#367 = LINE('',#368,#369);
#368 = CARTESIAN_POINT('',(-5.,-8.660254037844,0.));
#369 = VECTOR('',#370,1.);
#370 = DIRECTION('',(1.,0.,0.));
#371 = ORIENTED_EDGE('',*,*,#372,.F.);
#372 = EDGE_CURVE('',#373,#365,#375,.T.);
#373 = VERTEX_POINT('',#374);
#374 = CARTESIAN_POINT('',(-10.,0.,0.));
#375 = LINE('',#376,#377);
#376 = CARTESIAN_POINT('',(-10.,0.,0.));
#377 = VECTOR('',#378,1.);
#378 = DIRECTION('',(0.5,-0.866025403784,0.));
#379 = ORIENTED_EDGE('',*,*,#380,.F.);
#380 = EDGE_CURVE('',#341,#373,#381,.T.);
#381 = LINE('',#382,#383);
#382 = CARTESIAN_POINT('',(-5.,8.660254037844,0.));
#383 = VECTOR('',#384,1.);
#384 = DIRECTION('',(-0.5,-0.866025403784,0.));
#385 = PLANE('',#386);
#386 = AXIS2_PLACEMENT_3D('',#387,#388,#389);
#387 = CARTESIAN_POINT('',(-1.2E-15,-7.E-16,0.));
#388 = DIRECTION('',(0.,0.,1.));
#389 = DIRECTION('',(1.,0.,0.));
#390 = ADVANCED_FACE('',(#391,#441,#444,#447),#450,.F.);
#391 = FACE_BOUND('',#392,.F.);
#392 = EDGE_LOOP('',(#393,#403,#411,#419,#427,#435));
#393 = ORIENTED_EDGE('',*,*,#394,.T.);
#394 = EDGE_CURVE('',#395,#397,#399,.T.);
#395 = VERTEX_POINT('',#396);
#396 = CARTESIAN_POINT('',(10.,0.,4.));
#397 = VERTEX_POINT('',#398);
#398 = CARTESIAN_POINT('',(5.,8.660254037844,4.));
#399 = LINE('',#400,#401);
#400 = CARTESIAN_POINT('',(10.,0.,4.));
#401 = VECTOR('',#402,1.);
#402 = DIRECTION('',(-0.5,0.866025403784,0.));
#403 = ORIENTED_EDGE('',*,*,#404,.T.);
#404 = EDGE_CURVE('',#397,#405,#407,.T.);
#405 = VERTEX_POINT('',#406);
#406 = CARTESIAN_POINT('',(-5.,8.660254037844,4.));
#407 = LINE('',#408,#409);
#408 = CARTESIAN_POINT('',(5.,8.660254037844,4.));
#409 = VECTOR('',#410,1.);
#410 = DIRECTION('',(-1.,1.8E-16,0.));
#411 = ORIENTED_EDGE('',*,*,#412,.T.);
#412 = EDGE_CURVE('',#405,#413,#415,.T.);
#413 = VERTEX_POINT('',#414);
#414 = CARTESIAN_POINT('',(-10.,0.,4.));
#415 = LINE('',#416,#417);
#416 = CARTESIAN_POINT('',(-5.,8.660254037844,4.));
#417 = VECTOR('',#418,1.);
#418 = DIRECTION('',(-0.5,-0.866025403784,0.));
#419 = ORIENTED_EDGE('',*,*,#420,.T.);
#420 = EDGE_CURVE('',#413,#421,#423,.T.);
#421 = VERTEX_POINT('',#422);
#422 = CARTESIAN_POINT('',(-5.,-8.660254037844,4.));
#423 = LINE('',#424,#425);
#424 = CARTESIAN_POINT('',(-10.,0.,4.));
#425 = VECTOR('',#426,1.);
#426 = DIRECTION('',(0.5,-0.866025403784,0.));
#427 = ORIENTED_EDGE('',*,*,#428,.T.);
#428 = EDGE_CURVE('',#421,#429,#431,.T.);
#429 = VERTEX_POINT('',#430);
#430 = CARTESIAN_POINT('',(5.,-8.660254037844,4.));
#431 = LINE('',#432,#433);
#432 = CARTESIAN_POINT('',(-5.,-8.660254037844,4.));
#433 = VECTOR('',#434,1.);
#434 = DIRECTION('',(1.,0.,0.));
#435 = ORIENTED_EDGE('',*,*,#436,.T.);
#436 = EDGE_CURVE('',#429,#395,#437,.T.);
#437 = LINE('',#438,#439);
#438 = CARTESIAN_POINT('',(5.,-8.660254037844,4.));
#439 = VECTOR('',#440,1.);
#440 = DIRECTION('',(0.5,0.866025403784,0.));
#441 = FACE_BOUND('',#442,.F.);
#442 = EDGE_LOOP('',(#443));
#443 = ORIENTED_EDGE('',*,*,#270,.T.);
#444 = FACE_BOUND('',#445,.F.);
#445 = EDGE_LOOP('',(#446));
#446 = ORIENTED_EDGE('',*,*,#295,.T.);
#447 = FACE_BOUND('',#448,.F.);
#448 = EDGE_LOOP('',(#449));
#449 = ORIENTED_EDGE('',*,*,#320,.T.);
#450 = PLANE('',#451);
#451 = AXIS2_PLACEMENT_3D('',#452,#453,#454);
#452 = CARTESIAN_POINT('',(-1.75E-15,-1.02E-15,4.));
#453 = DIRECTION('',(0.,0.,1.));
#454 = DIRECTION('',(1.,0.,0.));
#455 = ADVANCED_FACE('',(#456),#472,.T.);
#456 = FACE_BOUND('',#457,.T.);
#457 = EDGE_LOOP('',(#458,#464,#465,#471));
#458 = ORIENTED_EDGE('',*,*,#459,.T.);
#459 = EDGE_CURVE('',#339,#397,#460,.T.);
#460 = LINE('',#461,#462);
#461 = CARTESIAN_POINT('',(5.,8.660254037844,0.));
#462 = VECTOR('',#463,1.);
#463 = DIRECTION('',(0.,0.,1.));
#464 = ORIENTED_EDGE('',*,*,#404,.T.);
#465 = ORIENTED_EDGE('',*,*,#466,.F.);
#466 = EDGE_CURVE('',#341,#405,#467,.T.);
#467 = LINE('',#468,#469);
#468 = CARTESIAN_POINT('',(-5.,8.660254037844,0.));
#469 = VECTOR('',#470,1.);
#470 = DIRECTION('',(0.,0.,1.));
#471 = ORIENTED_EDGE('',*,*,#338,.F.);
#472 = PLANE('',#473);
#473 = AXIS2_PLACEMENT_3D('',#474,#475,#476);
#474 = CARTESIAN_POINT('',(5.,8.660254037844,0.));
#475 = DIRECTION('',(-1.8E-16,-1.,0.));
#476 = DIRECTION('',(-1.,1.8E-16,0.));
#477 = ADVANCED_FACE('',(#478),#489,.T.);
#478 = FACE_BOUND('',#479,.T.);
#479 = EDGE_LOOP('',(#480,#486,#487,#488));
#480 = ORIENTED_EDGE('',*,*,#481,.T.);
#481 = EDGE_CURVE('',#349,#395,#482,.T.);
#482 = LINE('',#483,#484);
#483 = CARTESIAN_POINT('',(10.,0.,0.));
#484 = VECTOR('',#485,1.);
#485 = DIRECTION('',(0.,0.,1.));
#486 = ORIENTED_EDGE('',*,*,#394,.T.);
#487 = ORIENTED_EDGE('',*,*,#459,.F.);
#488 = ORIENTED_EDGE('',*,*,#348,.F.);
#489 = PLANE('',#490);
#490 = AXIS2_PLACEMENT_3D('',#491,#492,#493);
#491 = CARTESIAN_POINT('',(10.,0.,0.));
#492 = DIRECTION('',(-0.866025403784,-0.5,0.));
#493 = DIRECTION('',(-0.5,0.866025403784,0.));
#494 = ADVANCED_FACE('',(#495),#506,.T.);
#495 = FACE_BOUND('',#496,.T.);
#496 = EDGE_LOOP('',(#497,#498,#499,#505));
#497 = ORIENTED_EDGE('',*,*,#466,.T.);
#498 = ORIENTED_EDGE('',*,*,#412,.T.);
#499 = ORIENTED_EDGE('',*,*,#500,.F.);
#500 = EDGE_CURVE('',#373,#413,#501,.T.);
#501 = LINE('',#502,#503);
#502 = CARTESIAN_POINT('',(-10.,0.,0.));
#503 = VECTOR('',#504,1.);
#504 = DIRECTION('',(0.,0.,1.));
#505 = ORIENTED_EDGE('',*,*,#380,.F.);
#506 = PLANE('',#507);
#507 = AXIS2_PLACEMENT_3D('',#508,#509,#510);
#508 = CARTESIAN_POINT('',(-5.,8.660254037844,0.));
#509 = DIRECTION('',(0.866025403784,-0.5,0.));
#510 = DIRECTION('',(-0.5,-0.866025403784,0.));
#511 = ADVANCED_FACE('',(#512),#523,.T.);
#512 = FACE_BOUND('',#513,.T.);
#513 = EDGE_LOOP('',(#514,#520,#521,#522));
#514 = ORIENTED_EDGE('',*,*,#515,.T.);
#515 = EDGE_CURVE('',#357,#429,#516,.T.);
#516 = LINE('',#517,#518);
#517 = CARTESIAN_POINT('',(5.,-8.660254037844,0.));
#518 = VECTOR('',#519,1.);
#519 = DIRECTION('',(0.,0.,1.));
#520 = ORIENTED_EDGE('',*,*,#436,.T.);
#521 = ORIENTED_EDGE('',*,*,#481,.F.);
#522 = ORIENTED_EDGE('',*,*,#356,.F.);
#523 = PLANE('',#524);
#524 = AXIS2_PLACEMENT_3D('',#525,#526,#527);
#525 = CARTESIAN_POINT('',(5.,-8.660254037844,0.));
#526 = DIRECTION('',(-0.866025403784,0.5,0.));
#527 = DIRECTION('',(0.5,0.866025403784,0.));
#528 = ADVANCED_FACE('',(#529),#540,.T.);
#529 = FACE_BOUND('',#530,.T.);
#530 = EDGE_LOOP('',(#531,#532,#533,#539));
#531 = ORIENTED_EDGE('',*,*,#500,.T.);
#532 = ORIENTED_EDGE('',*,*,#420,.T.);
#533 = ORIENTED_EDGE('',*,*,#534,.F.);
#534 = EDGE_CURVE('',#365,#421,#535,.T.);
#535 = LINE('',#536,#537);
#536 = CARTESIAN_POINT('',(-5.,-8.660254037844,0.));
#537 = VECTOR('',#538,1.);
#538 = DIRECTION('',(0.,0.,1.));
#539 = ORIENTED_EDGE('',*,*,#372,.F.);
#540 = PLANE('',#541);
#541 = AXIS2_PLACEMENT_3D('',#542,#543,#544);
#542 = CARTESIAN_POINT('',(-10.,0.,0.));
#543 = DIRECTION('',(0.866025403784,0.5,0.));
#544 = DIRECTION('',(0.5,-0.866025403784,0.));
#545 = ADVANCED_FACE('',(#546),#552,.T.);
#546 = FACE_BOUND('',#547,.T.);
#547 = EDGE_LOOP('',(#548,#549,#550,#551));
#548 = ORIENTED_EDGE('',*,*,#534,.T.);
#549 = ORIENTED_EDGE('',*,*,#428,.T.);
#550 = ORIENTED_EDGE('',*,*,#515,.F.);
#551 = ORIENTED_EDGE('',*,*,#364,.F.);
#552 = PLANE('',#553);
#553 = AXIS2_PLACEMENT_3D('',#554,#555,#556);
#554 = CARTESIAN_POINT('',(-5.,-8.660254037844,0.));
#555 = DIRECTION('',(0.,1.,0.));
#556 = DIRECTION('',(1.,0.,0.));
#557 = ( GEOMETRIC_REPRESENTATION_CONTEXT(3) 
GLOBAL_UNCERTAINTY_ASSIGNED_CONTEXT((#561)) GLOBAL_UNIT_ASSIGNED_CONTEXT
((#558,#559,#560)) REPRESENTATION_CONTEXT('Context #1',
  '3D Context with UNIT and UNCERTAINTY') );
#558 = ( LENGTH_UNIT() NAMED_UNIT(*) SI_UNIT(.MILLI.,.METRE.) );
#559 = ( NAMED_UNIT(*) PLANE_ANGLE_UNIT() SI_UNIT($,.RADIAN.) );
#560 = ( NAMED_UNIT(*) SI_UNIT($,.STERADIAN.) SOLID_ANGLE_UNIT() );
#561 = UNCERTAINTY_MEASURE_WITH_UNIT(LENGTH_MEASURE(5.E-07),#558,
  'distance_accuracy_value','confusion accuracy');
#562 = PRODUCT_RELATED_PRODUCT_CATEGORY('part',$,(#7));
#563 = MECHANICAL_DESIGN_GEOMETRIC_PRESENTATION_REPRESENTATION('',(#564)
  ,#557);
#564 = STYLED_ITEM('color',(#565),#15);
#565 = PRESENTATION_STYLE_ASSIGNMENT((#566,#572));
#566 = SURFACE_STYLE_USAGE(.BOTH.,#567);
#567 = SURFACE_SIDE_STYLE('',(#568));
#568 = SURFACE_STYLE_FILL_AREA(#569);
#569 = FILL_AREA_STYLE('',(#570));
#570 = FILL_AREA_STYLE_COLOUR('',#571);
#571 = COLOUR_RGB('',0.447058818107,0.474509808674,0.501960817233);
#572 = CURVE_STYLE('',#573,POSITIVE_LENGTH_MEASURE(0.1),#574);
#573 = DRAUGHTING_PRE_DEFINED_CURVE_FONT('continuous');
#574 = COLOUR_RGB('',9.803921802644E-02,9.803921802644E-02,
  9.803921802644E-02);
ENDSEC;
END-ISO-10303-21;
